<svg xmlns="http://www.w3.org/2000/svg" width="184" height="58.424" viewBox="0 0 184 58.424">
  <g id="Grupo_577" data-name="Grupo 577" transform="translate(-36.5 -117.288)">
    <g id="Grupo_239" data-name="Grupo 239" transform="translate(-105.5 83.288)">
      <g id="Grupo_3" data-name="Grupo 3" transform="translate(142 34)">
        <g id="Grupo_5" data-name="Grupo 5" transform="translate(0 0)">
          <g id="Grupo_1" data-name="Grupo 1" transform="translate(47.28 13.79)">
            <path id="Trazado_1" data-name="Trazado 1" d="M334.857,356.167v14.625c-.108,8.024-16.927,8.024-16.927,0V356.167l-2.107-1.12h7.642l-2.143,1.12v14.625c.143,2.816,2.857,5.027,6.178,5.027s6.035-2.211,6.177-5.027V356.167l-2.143-1.12h5.429Z" transform="translate(-315.823 -355.046)" fill="#ecefe8"/>
            <path id="Trazado_2" data-name="Trazado 2" d="M348.174,376.818l2.047-1.12V356.167l-2.082-1.12h3.422l14.1,13.248.065-12.086-2.378-1.163h5.328l-2.082,1.12V375.7l2.082,1.12h-5.328l2.082-1.12v-3.633l-14.041-12.929V375.7l2.081,1.12Z" transform="translate(-320.289 -355.046)" fill="#ecefe8"/>
            <path id="Trazado_3" data-name="Trazado 3" d="M395.8,375.667l-.081-.151c-.444-1.3-.929-2.574-1.373-3.846l-.081-.182H383.931l-.041.182c-.444,1.272-.888,2.574-1.332,3.846l-.081.151,2.3,1.151h-5.936l2.3-1.09.041-.09c2.382-6.874,4.765-13.717,7.148-20.591h3.8c1.211,3.392,2.423,6.753,3.634,10.144.848,2.392,1.736,4.785,2.585,7.176.283.788.606,1.575.888,2.362.081.242.161.454.242.666.041.121.122.333.283.394l2.342,1.029h-8.723Zm-2.019-5.481c-1.494-4.088-2.948-8.205-4.443-12.294l-.323-.878-.322.878c-1.414,4.088-2.868,8.206-4.281,12.294l-.121.3h9.611Z" transform="translate(-324.533 -355.046)" fill="#ecefe8"/>
            <path id="Trazado_4" data-name="Trazado 4" d="M424.949,356.136l-.035.061c-1.94,3.452-3.916,6.9-5.892,10.355l-.035.06V375.7l2.082,1.12H413.73l2.081-1.12v-9.144c-2.081-3.452-4.127-6.9-6.174-10.355l-.035-.061-2.152-1.09h7.621l-2.153,1.151.106.212c1.729,2.907,3.458,5.784,5.186,8.69l.247.424.246-.424c1.658-2.907,3.316-5.784,5.01-8.69l.106-.182-2.152-1.182h5.539Z" transform="translate(-328.486 -355.046)" fill="#ecefe8"/>
          </g>
          <g id="Grupo_2" data-name="Grupo 2">
            <path id="Trazado_5" data-name="Trazado 5" d="M272.845,339.045h4.473c1.877,7.12,3.7,14.193,5.581,21.313l.337,1.4.385-1.4c1.924-7.12,3.9-14.193,5.821-21.313h4.474q4.258,16.31,8.515,32.715l.048.145,2.742,1.732H298.2l2.694-1.829-.048-.24c-2.454-9.333-4.955-18.667-7.361-28l-.337-1.444-.385,1.4c-2.55,9.333-5.1,18.716-7.649,28l-.048.289,2.886,1.829H277.56l2.934-1.732,1.924-7.168v-.1c-1.876-7.024-3.7-14.048-5.533-21.073l-.337-1.444-.384,1.4c-2.55,9.333-5.1,18.716-7.65,28l-.048.289,2.887,1.829H260.961l2.935-1.732.048-.145C266.879,360.84,269.862,349.966,272.845,339.045Z" transform="translate(-260.961 -339.045)" fill="#ecefe8"/>
          </g>
        </g>
      </g>
    </g>
    <text id="AGUA_PURIFICADA" data-name="AGUA PURIFICADA" transform="translate(36.5 161.712)" fill="#ecefe8" font-size="10" font-family="SegoeUI, Segoe UI" letter-spacing="0.1em"><tspan x="0" y="11">AGUA PURIFICADA</tspan></text>
  </g>
</svg>
