<svg xmlns="http://www.w3.org/2000/svg" width="208" height="74" viewBox="0 0 208 74">
  <g id="Grupo_481" data-name="Grupo 481" transform="translate(-141 -65)">
    <g id="Grupo_239" data-name="Grupo 239" transform="translate(0 31)">
      <g id="Grupo_3" data-name="Grupo 3" transform="translate(142 34)">
        <g id="Grupo_5" data-name="Grupo 5" transform="translate(0 0)">
          <g id="Grupo_1" data-name="Grupo 1" transform="translate(67.034 19.551)">
            <path id="Trazado_1" data-name="Trazado 1" d="M342.809,356.634v20.736c-.153,11.377-24,11.377-24,0V356.634l-2.987-1.588h10.836l-3.039,1.588v20.736c.2,3.993,4.051,7.127,8.76,7.127s8.557-3.134,8.758-7.127V356.634l-3.038-1.588h7.7Z" transform="translate(-315.823 -355.046)" fill="#ecefe8"/>
            <path id="Trazado_2" data-name="Trazado 2" d="M348.189,385.914l2.9-1.588V356.634l-2.952-1.588h4.852l19.986,18.784.092-17.135-3.371-1.648h7.553l-2.952,1.588v27.691l2.952,1.588H369.7l2.952-1.588v-5.151l-19.908-18.331v23.483l2.951,1.588Z" transform="translate(-308.653 -355.046)" fill="#ecefe8"/>
            <path id="Trazado_3" data-name="Trazado 3" d="M402.89,384.283l-.115-.214c-.629-1.846-1.317-3.65-1.946-5.453l-.115-.258H386.057l-.057.258c-.629,1.8-1.259,3.65-1.889,5.453l-.115.214,3.264,1.631h-8.416l3.263-1.546.057-.128c3.377-9.745,6.756-19.448,10.134-29.194h5.382c1.717,4.809,3.435,9.574,5.153,14.382,1.2,3.392,2.462,6.784,3.664,10.174.4,1.117.859,2.233,1.26,3.349.115.343.228.644.343.944.058.172.173.472.4.559l3.321,1.459H399.455Zm-2.863-7.771c-2.119-5.8-4.18-11.633-6.3-17.43l-.458-1.245-.457,1.245c-2.005,5.8-4.066,11.635-6.07,17.43l-.171.43H400.2Z" transform="translate(-301.842 -355.046)" fill="#ecefe8"/>
            <path id="Trazado_4" data-name="Trazado 4" d="M432.26,356.592l-.05.087c-2.75,4.894-5.552,9.788-8.354,14.682l-.05.085v12.88l2.952,1.588h-10.4l2.951-1.588V371.36c-2.951-4.894-5.852-9.788-8.753-14.682l-.05-.087-3.051-1.546h10.8l-3.052,1.632.15.3c2.451,4.121,4.9,8.2,7.353,12.321l.351.6.35-.6c2.351-4.121,4.7-8.2,7.1-12.321l.15-.258-3.051-1.675h7.853Z" transform="translate(-295.495 -355.046)" fill="#ecefe8"/>
          </g>
          <g id="Grupo_2" data-name="Grupo 2">
            <path id="Trazado_5" data-name="Trazado 5" d="M277.81,339.045h6.343c2.661,10.1,5.253,20.123,7.913,30.218l.478,1.978.546-1.978c2.728-10.1,5.525-20.123,8.254-30.218h6.344q6.037,23.124,12.073,46.384l.068.205,3.888,2.456h-9.958l3.819-2.593-.068-.341c-3.479-13.233-7.026-26.467-10.436-39.7l-.478-2.047-.546,1.978c-3.615,13.233-7.231,26.535-10.845,39.7l-.068.409,4.092,2.593H284.5l4.161-2.456,2.728-10.163v-.137c-2.66-9.959-5.253-19.917-7.844-29.877l-.478-2.047-.545,1.978c-3.616,13.233-7.231,26.535-10.847,39.7l-.069.409,4.093,2.593H260.961l4.162-2.456.067-.205C269.351,369.946,273.58,354.529,277.81,339.045Z" transform="translate(-260.961 -339.045)" fill="#ecefe8"/>
          </g>
        </g>
      </g>
    </g>
    <text id="AGUA_PURIFICADA" data-name="AGUA PURIFICADA" transform="translate(142 126)" fill="#ecefe8" font-size="13" font-family="ACaslonPro-Regular, Adobe Caslon Pro" letter-spacing="0.1em"><tspan x="0" y="10">AGUA PURIFICADA</tspan></text>
  </g>
</svg>
